<?xml version="1.0" encoding="UTF-8"?>
<svg xmlns="http://www.w3.org/2000/svg" xmlns:xlink="http://www.w3.org/1999/xlink" width="20px" height="20px" viewBox="0 0 20 20" version="1.1">
<g id="surface1">
<path style=" stroke:none;fill-rule:nonzero;fill:rgb(20%,20%,20%);fill-opacity:1;" d="M 15.832031 17.5 L 2.5 17.5 C 2.277344 17.5 2.066406 17.414062 1.910156 17.257812 C 1.753906 17.101562 1.667969 16.886719 1.667969 16.667969 L 1.667969 3.332031 C 1.667969 3.113281 1.753906 2.898438 1.910156 2.742188 C 2.066406 2.585938 2.277344 2.5 2.5 2.5 L 15.832031 2.5 C 16.054688 2.5 16.265625 2.585938 16.421875 2.742188 C 16.578125 2.898438 16.667969 3.113281 16.667969 3.332031 L 16.667969 4.167969 C 16.667969 4.625 16.292969 5 15.832031 5 C 15.375 5 15 4.625 15 4.167969 L 3.332031 4.167969 L 3.332031 15.832031 L 15 15.832031 C 15 15.375 15.375 15 15.832031 15 C 16.292969 15 16.667969 15.375 16.667969 15.832031 L 16.667969 16.667969 C 16.667969 16.886719 16.578125 17.101562 16.421875 17.257812 C 16.265625 17.414062 16.054688 17.5 15.832031 17.5 Z M 15.832031 17.5 "/>
<path style=" stroke:none;fill-rule:nonzero;fill:rgb(20%,20%,20%);fill-opacity:1;" d="M 7.5 3.332031 L 7.5 8.332031 L 9.167969 6.667969 L 10.832031 8.332031 L 10.832031 3.332031 Z M 7.5 3.332031 "/>
<path style=" stroke:none;fill-rule:nonzero;fill:rgb(20%,20%,20%);fill-opacity:1;" d="M 15.832031 13.332031 C 15.496094 13.332031 15.191406 13.128906 15.0625 12.820312 C 14.933594 12.507812 15.007812 12.148438 15.246094 11.910156 L 17.15625 10 L 15.246094 8.089844 C 14.921875 7.761719 14.925781 7.238281 15.25 6.917969 C 15.574219 6.59375 16.097656 6.589844 16.421875 6.910156 L 19.511719 10 L 16.421875 13.089844 C 16.265625 13.246094 16.054688 13.332031 15.832031 13.332031 Z M 15.832031 13.332031 "/>
<path style=" stroke:none;fill-rule:nonzero;fill:rgb(20%,20%,20%);fill-opacity:1;" d="M 17.5 10.832031 L 11.667969 10.832031 C 11.207031 10.832031 10.832031 10.460938 10.832031 10 C 10.832031 9.539062 11.207031 9.167969 11.667969 9.167969 L 17.5 9.167969 C 17.960938 9.167969 18.332031 9.539062 18.332031 10 C 18.332031 10.460938 17.960938 10.832031 17.5 10.832031 Z M 17.5 10.832031 "/>
</g>
</svg>
