<?xml version="1.0" encoding="UTF-8"?>
<svg xmlns="http://www.w3.org/2000/svg" xmlns:xlink="http://www.w3.org/1999/xlink" width="20px" height="20px" viewBox="0 0 20 20" version="1.1">
<g id="surface1">
<path style=" stroke:none;fill-rule:nonzero;fill:rgb(20%,20%,20%);fill-opacity:1;" d="M 17.5 17.5 L 4.167969 17.5 C 3.945312 17.5 3.734375 17.414062 3.578125 17.257812 C 3.421875 17.101562 3.332031 16.886719 3.332031 16.667969 L 3.332031 15.832031 C 3.332031 15.375 3.707031 15 4.167969 15 C 4.625 15 5 15.375 5 15.832031 L 16.667969 15.832031 L 16.667969 4.167969 L 5 4.167969 C 5 4.625 4.625 5 4.167969 5 C 3.707031 5 3.332031 4.625 3.332031 4.167969 L 3.332031 3.332031 C 3.332031 3.113281 3.421875 2.898438 3.578125 2.742188 C 3.734375 2.585938 3.945312 2.5 4.167969 2.5 L 17.5 2.5 C 17.722656 2.5 17.933594 2.585938 18.089844 2.742188 C 18.246094 2.898438 18.332031 3.113281 18.332031 3.332031 L 18.332031 16.667969 C 18.332031 16.886719 18.246094 17.101562 18.089844 17.257812 C 17.933594 17.414062 17.722656 17.5 17.5 17.5 Z M 17.5 17.5 "/>
<path style=" stroke:none;fill-rule:nonzero;fill:rgb(20%,20%,20%);fill-opacity:1;" d="M 12.5 3.332031 L 12.5 8.332031 L 10.832031 6.667969 L 9.167969 8.332031 L 9.167969 3.332031 Z M 12.5 3.332031 "/>
<path style=" stroke:none;fill-rule:nonzero;fill:rgb(20%,20%,20%);fill-opacity:1;" d="M 4.167969 13.332031 C 3.945312 13.332031 3.734375 13.246094 3.578125 13.089844 L 0.488281 10 L 3.578125 6.910156 C 3.902344 6.589844 4.425781 6.59375 4.75 6.917969 C 5.074219 7.238281 5.078125 7.761719 4.753906 8.089844 L 2.84375 10 L 4.757812 11.910156 C 4.996094 12.148438 5.066406 12.507812 4.9375 12.820312 C 4.808594 13.128906 4.503906 13.332031 4.167969 13.332031 Z M 4.167969 13.332031 "/>
<path style=" stroke:none;fill-rule:nonzero;fill:rgb(20%,20%,20%);fill-opacity:1;" d="M 8.332031 10.832031 L 2.5 10.832031 C 2.039062 10.832031 1.667969 10.460938 1.667969 10 C 1.667969 9.539062 2.039062 9.167969 2.5 9.167969 L 8.332031 9.167969 C 8.792969 9.167969 9.167969 9.539062 9.167969 10 C 9.167969 10.460938 8.792969 10.832031 8.332031 10.832031 Z M 8.332031 10.832031 "/>
</g>
</svg>
