<?xml version="1.0" encoding="UTF-8"?>
<svg xmlns="http://www.w3.org/2000/svg" xmlns:xlink="http://www.w3.org/1999/xlink" width="24px" height="24px" viewBox="0 0 24 24" version="1.1">
<g id="surface1">
<path style=" stroke:none;fill-rule:evenodd;fill:rgb(20%,20%,20%);fill-opacity:1;" d="M 9.355469 2.347656 C 9.546875 2.152344 9.867188 2.152344 10.0625 2.347656 L 14.304688 6.589844 C 14.5 6.785156 14.5 7.101562 14.304688 7.296875 C 14.109375 7.492188 13.792969 7.492188 13.597656 7.296875 L 9.355469 3.054688 C 9.160156 2.859375 9.160156 2.542969 9.355469 2.347656 Z M 9.355469 2.347656 "/>
<path style=" stroke:none;fill-rule:evenodd;fill:rgb(20%,20%,20%);fill-opacity:1;" d="M 14.355469 2.351562 C 14.546875 2.546875 14.546875 2.867188 14.355469 3.058594 L 10.109375 7.304688 C 9.914062 7.5 9.597656 7.5 9.402344 7.304688 C 9.207031 7.109375 9.207031 6.792969 9.402344 6.597656 L 13.644531 2.351562 C 13.839844 2.15625 14.160156 2.15625 14.355469 2.351562 Z M 14.355469 2.351562 "/>
<path style=" stroke:none;fill-rule:evenodd;fill:rgb(20%,20%,20%);fill-opacity:1;" d="M 12.15625 7.527344 C 12.054688 7.492188 11.945312 7.492188 11.84375 7.527344 L 4.433594 9.996094 C 4.324219 10.03125 4.230469 10.105469 4.171875 10.199219 L 2.199219 12.730469 C 2.097656 12.859375 2.066406 13.027344 2.113281 13.183594 C 2.160156 13.339844 2.28125 13.460938 2.433594 13.511719 L 4.097656 14.066406 L 4.097656 18.382812 C 4.097656 19.027344 4.511719 19.601562 5.125 19.804688 L 11.816406 22.035156 C 11.875 22.058594 11.9375 22.070312 12 22.070312 C 12.066406 22.070312 12.128906 22.058594 12.1875 22.035156 L 18.878906 19.804688 C 19.492188 19.601562 19.90625 19.027344 19.90625 18.382812 L 19.90625 14.066406 L 21.566406 13.511719 C 21.722656 13.460938 21.839844 13.339844 21.886719 13.183594 C 21.933594 13.027344 21.902344 12.859375 21.804688 12.730469 L 19.804688 10.167969 C 19.746094 10.089844 19.664062 10.027344 19.566406 9.996094 Z M 4.773438 11.054688 L 11.171875 13.1875 L 9.824219 14.921875 L 3.421875 12.789062 Z M 12 12.410156 L 17.828125 10.46875 L 12 8.527344 L 6.175781 10.46875 Z M 5.097656 18.382812 L 5.097656 14.398438 L 9.84375 15.980469 C 10.042969 16.046875 10.265625 15.980469 10.394531 15.8125 L 11.5 14.394531 L 11.5 20.875 L 5.441406 18.855469 C 5.234375 18.789062 5.097656 18.597656 5.097656 18.382812 Z M 18.90625 14.398438 L 14.160156 15.980469 C 13.957031 16.046875 13.738281 15.980469 13.605469 15.8125 L 12.5 14.394531 L 12.503906 20.875 L 18.5625 18.855469 C 18.765625 18.789062 18.90625 18.597656 18.90625 18.382812 Z M 14.179688 14.921875 L 12.828125 13.1875 L 19.230469 11.054688 L 20.582031 12.789062 Z M 14.179688 14.921875 "/>
</g>
</svg>
