<?xml version="1.0" encoding="UTF-8"?>
<svg xmlns="http://www.w3.org/2000/svg" xmlns:xlink="http://www.w3.org/1999/xlink" width="20px" height="20px" viewBox="0 0 20 20" version="1.1">
<g id="surface1">
<path style=" stroke:none;fill-rule:nonzero;fill:rgb(0%,0%,0%);fill-opacity:1;" d="M 0 3.914062 L 1.304688 3.914062 L 1.304688 6.957031 L 0 6.957031 Z M 0 3.914062 "/>
<path style=" stroke:none;fill-rule:nonzero;fill:rgb(0%,0%,0%);fill-opacity:1;" d="M 3.476562 5.21875 L 4.78125 5.21875 L 4.78125 6.957031 L 3.476562 6.957031 Z M 3.476562 5.21875 "/>
<path style=" stroke:none;fill-rule:nonzero;fill:rgb(0%,0%,0%);fill-opacity:1;" d="M 4.78125 6.957031 L 7.390625 6.957031 L 7.390625 8.261719 L 4.78125 8.261719 Z M 4.78125 6.957031 "/>
<path style=" stroke:none;fill-rule:nonzero;fill:rgb(0%,0%,0%);fill-opacity:1;" d="M 7.390625 5.21875 L 8.695312 5.21875 L 8.695312 6.957031 L 7.390625 6.957031 Z M 7.390625 5.21875 "/>
<path style=" stroke:none;fill-rule:nonzero;fill:rgb(0%,0%,0%);fill-opacity:1;" d="M 11.304688 5.21875 L 12.609375 5.21875 L 12.609375 6.957031 L 11.304688 6.957031 Z M 11.304688 5.21875 "/>
<path style=" stroke:none;fill-rule:nonzero;fill:rgb(0%,0%,0%);fill-opacity:1;" d="M 12.609375 6.957031 L 15.21875 6.957031 L 15.21875 8.261719 L 12.609375 8.261719 Z M 12.609375 6.957031 "/>
<path style=" stroke:none;fill-rule:nonzero;fill:rgb(0%,0%,0%);fill-opacity:1;" d="M 8.695312 6.957031 L 11.304688 6.957031 L 11.304688 8.261719 L 8.695312 8.261719 Z M 8.695312 6.957031 "/>
<path style=" stroke:none;fill-rule:nonzero;fill:rgb(0%,0%,0%);fill-opacity:1;" d="M 15.21875 5.21875 L 16.523438 5.21875 L 16.523438 6.957031 L 15.21875 6.957031 Z M 15.21875 5.21875 "/>
<path style=" stroke:none;fill-rule:nonzero;fill:rgb(0%,0%,0%);fill-opacity:1;" d="M 18.695312 3.914062 L 20 3.914062 L 20 6.957031 L 18.695312 6.957031 Z M 18.695312 3.914062 "/>
<path style=" stroke:none;fill-rule:nonzero;fill:rgb(0%,0%,0%);fill-opacity:1;" d="M 1.304688 1.304688 L 2.609375 1.304688 L 2.609375 3.914062 L 1.304688 3.914062 Z M 1.304688 1.304688 "/>
<path style=" stroke:none;fill-rule:nonzero;fill:rgb(0%,0%,0%);fill-opacity:1;" d="M 17.390625 1.304688 L 18.695312 1.304688 L 18.695312 3.914062 L 17.390625 3.914062 Z M 17.390625 1.304688 "/>
<path style=" stroke:none;fill-rule:nonzero;fill:rgb(0%,0%,0%);fill-opacity:1;" d="M 2.609375 0 L 17.390625 0 L 17.390625 1.304688 L 2.609375 1.304688 Z M 2.609375 0 "/>
<path style=" stroke:none;fill-rule:nonzero;fill:rgb(0%,0%,0%);fill-opacity:1;" d="M 16.523438 6.957031 L 16.523438 8.261719 L 17.390625 8.261719 L 17.390625 16.085938 L 7.824219 16.085938 L 7.824219 9.566406 L 3.914062 9.566406 L 3.914062 16.085938 L 2.609375 16.085938 L 2.609375 8.261719 L 3.476562 8.261719 L 3.476562 6.957031 L 1.304688 6.957031 L 1.304688 17.390625 L 18.695312 17.390625 L 18.695312 6.957031 Z M 6.523438 16.085938 L 5.21875 16.085938 L 5.21875 10.871094 L 6.523438 10.871094 Z M 6.523438 16.085938 "/>
<path style=" stroke:none;fill-rule:nonzero;fill:rgb(0%,0%,0%);fill-opacity:1;" d="M 18.695312 17.390625 L 18.695312 18.695312 L 1.304688 18.695312 L 1.304688 17.390625 L 0 17.390625 L 0 20 L 20 20 L 20 17.390625 Z M 18.695312 17.390625 "/>
<path style=" stroke:none;fill-rule:nonzero;fill:rgb(0%,0%,0%);fill-opacity:1;" d="M 9.128906 9.566406 L 9.128906 14.347656 L 16.085938 14.347656 L 16.085938 9.566406 Z M 14.78125 13.042969 L 10.433594 13.042969 L 10.433594 10.871094 L 14.78125 10.871094 Z M 14.78125 13.042969 "/>
</g>
</svg>
