<?xml version="1.0" encoding="UTF-8"?>
<svg xmlns="http://www.w3.org/2000/svg" xmlns:xlink="http://www.w3.org/1999/xlink" width="20px" height="20px" viewBox="0 0 20 20" version="1.1">
<g id="surface1">
<path style=" stroke:none;fill-rule:nonzero;fill:rgb(0%,0%,0%);fill-opacity:1;" d="M 18.597656 18.605469 L 19.550781 18.605469 L 19.550781 13.511719 L 18.597656 13.511719 L 18.597656 5.148438 L 19.078125 5.300781 L 20 3.457031 L 10 0.121094 L 0 3.457031 L 0.921875 5.300781 L 1.402344 5.148438 L 1.402344 19.242188 L 0.128906 19.242188 L 0.128906 19.878906 L 19.871094 19.878906 L 19.871094 19.242188 L 18.597656 19.242188 Z M 18.914062 14.148438 L 18.914062 17.96875 L 18.597656 17.96875 L 18.597656 14.148438 Z M 8.578125 19.242188 L 4.269531 19.242188 L 4.269531 10.644531 L 7.453125 10.644531 L 7.453125 17.96875 L 4.90625 17.96875 L 4.90625 18.605469 L 8.089844 18.605469 L 8.089844 9.371094 L 8.726562 9.371094 L 8.726562 16.546875 C 8.335938 16.898438 8.089844 17.402344 8.089844 17.96875 C 8.089844 18.457031 8.277344 18.902344 8.578125 19.242188 Z M 10 19.242188 C 9.296875 19.242188 8.726562 18.671875 8.726562 17.96875 C 8.726562 17.265625 9.296875 16.695312 10 16.695312 C 10.703125 16.695312 11.273438 17.265625 11.273438 17.96875 C 11.273438 18.671875 10.703125 19.242188 10 19.242188 Z M 11.816406 12.332031 L 11.367188 12.78125 L 11.777344 13.191406 L 10.542969 14.425781 L 11.835938 9.691406 L 15.507812 9.691406 L 16.683594 12.988281 L 12.796875 14.785156 L 11.085938 14.785156 L 12.230469 13.640625 L 12.640625 14.054688 L 13.089844 13.605469 Z M 9.414062 16.152344 C 9.394531 16.15625 9.378906 16.164062 9.363281 16.167969 L 9.363281 10.644531 L 10.914062 10.644531 Z M 11.421875 19.242188 C 11.585938 19.058594 11.714844 18.84375 11.796875 18.605469 L 14.886719 18.605469 C 14.972656 18.84375 15.101562 19.058594 15.265625 19.242188 Z M 16.6875 19.242188 C 15.984375 19.242188 15.414062 18.671875 15.414062 17.96875 C 15.414062 17.265625 15.984375 16.695312 16.6875 16.695312 C 17.386719 16.695312 17.960938 17.265625 17.960938 17.96875 C 17.960938 18.671875 17.386719 19.242188 16.6875 19.242188 Z M 17.960938 16.546875 C 17.621094 16.246094 17.175781 16.058594 16.6875 16.058594 C 15.632812 16.058594 14.777344 16.914062 14.777344 17.96875 L 11.910156 17.96875 C 11.910156 16.945312 11.105469 16.113281 10.097656 16.0625 L 10.273438 15.421875 L 12.933594 15.421875 L 16.898438 13.589844 L 17.097656 14.148438 L 17.960938 14.148438 Z M 17.960938 13.511719 L 17.546875 13.511719 L 16.183594 9.691406 L 16.6875 9.691406 L 16.6875 9.054688 L 10.636719 9.054688 L 10.636719 9.691406 L 11.175781 9.691406 L 11.089844 10.007812 L 9.363281 10.007812 L 9.363281 9.371094 L 10 9.371094 L 10 8.734375 L 6.816406 8.734375 L 6.816406 9.371094 L 7.453125 9.371094 L 7.453125 10.007812 L 3.632812 10.007812 L 3.632812 19.242188 L 2.039062 19.242188 L 2.039062 7.78125 L 17.960938 7.78125 Z M 17.960938 7.144531 L 2.039062 7.144531 L 2.039062 4.941406 L 10 2.382812 L 17.960938 4.941406 Z M 10 1.714844 L 1.25 4.527344 L 0.898438 3.828125 L 10 0.792969 L 19.101562 3.828125 L 18.75 4.527344 Z M 10 1.714844 "/>
<path style=" stroke:none;fill-rule:nonzero;fill:rgb(0%,0%,0%);fill-opacity:1;" d="M 9.679688 3.640625 L 10.320312 3.640625 L 10.320312 4.277344 L 9.679688 4.277344 Z M 9.679688 3.640625 "/>
<path style=" stroke:none;fill-rule:nonzero;fill:rgb(0%,0%,0%);fill-opacity:1;" d="M 10.957031 3.640625 L 11.59375 3.640625 L 11.59375 4.277344 L 10.957031 4.277344 Z M 10.957031 3.640625 "/>
<path style=" stroke:none;fill-rule:nonzero;fill:rgb(0%,0%,0%);fill-opacity:1;" d="M 8.40625 3.640625 L 9.042969 3.640625 L 9.042969 4.277344 L 8.40625 4.277344 Z M 8.40625 3.640625 "/>
</g>
</svg>
